<svg xmlns="http://www.w3.org/2000/svg" width="189.018" height="35.283" viewBox="0 0 189.018 35.283">
  <g id="Group_422" data-name="Group 422" transform="translate(0 0)">
    <path id="Path_15" data-name="Path 15" d="M-556.441,28.746c3.479,0,5.845,2.3,5.915,6.124H-562.84c.279-3.688,2.714-6.124,6.4-6.124m-.07-2.088c-5.289,0-9.047,3.619-9.047,9.186,0,5.428,3.479,9.326,9.4,9.326a24.205,24.205,0,0,0,6.89-1.183l-.417-2.088a23.49,23.49,0,0,1-6.4.974,6.382,6.382,0,0,1-6.75-5.915h14.475a9.568,9.568,0,0,0,.139-2.018c.07-5.076-3.34-8.281-8.281-8.281m-11.552.139a55.611,55.611,0,0,0-9.673.905v16.91h2.575V29.72a61.319,61.319,0,0,1,7.1-.344Zm-24.778,2.088a36.688,36.688,0,0,1,6.054.487V40.854a10.635,10.635,0,0,1-6.195,2.088c-3.9,0-6.4-2.853-6.4-7.028,0-4.106,2.227-7.028,6.539-7.028m-.279-2.227c-5.428,0-8.769,3.688-8.838,9.186,0,5.637,3.479,9.326,8.629,9.326a11.405,11.405,0,0,0,6.539-2.088v1.531h2.575V27.632a41,41,0,0,0-8.9-.974m-17.816,17.954,6.333-17.4h-2.645l-5.15,13.852-4.941-13.852h-2.089l-5.011,13.779-5.076-13.779h-2.646l6.333,17.4h2.505l4.871-13.64,4.941,13.64h2.574Z" transform="translate(737.236 -17.889)" fill="#009edd"/>
    <path id="Path_16" data-name="Path 16" d="M-667.163,42.005a21.3,21.3,0,0,0,7.724,1.74c4.245,0,7.168-1.807,7.168-5.358,0-3.41-2.853-4.245-6.959-5.15-3.062-.7-4.662-1.113-4.662-2.925,0-1.949,1.531-2.925,4.175-2.925a22.074,22.074,0,0,1,6.263,1.113l.626-2.018a21.576,21.576,0,0,0-6.681-1.183c-4.315,0-6.89,1.879-6.89,5.15,0,2.853,1.949,4.036,5.776,4.8,3.41.7,5.985,1.113,5.985,3.341,0,1.949-1.949,2.992-4.593,2.992a19.155,19.155,0,0,1-7.307-1.74Zm-16.98-8.769V16.465h-2.575V43.188h2.575V35.6h3.757l7.307,7.586h3.132l-8.907-9.6,7.657-7.724h-3.2l-7.307,7.377Zm-17.676-5.776a35.305,35.305,0,0,1,5.985.487V39.43a10.635,10.635,0,0,1-6.195,2.088c-3.9,0-6.4-2.856-6.4-7.029,0-4.106,2.3-7.028,6.611-7.028m-.279-2.227c-5.428,0-8.769,3.688-8.838,9.186,0,5.637,3.479,9.326,8.629,9.326a11.4,11.4,0,0,0,6.539-2.088v1.531h2.575V26.208a41.022,41.022,0,0,0-8.907-.974m-21.225,2.088c3.479,0,5.845,2.3,5.915,6.124h-12.312c.279-3.688,2.714-6.124,6.4-6.124m-.07-2.088c-5.289,0-9.045,3.62-9.045,9.185,0,5.428,3.479,9.326,9.4,9.326a24.175,24.175,0,0,0,6.89-1.183l-.417-2.088a23.475,23.475,0,0,1-6.4.975,6.382,6.382,0,0,1-6.75-5.915h14.474a9.556,9.556,0,0,0,.139-2.018c.07-5.076-3.41-8.281-8.281-8.281m-22.13,15.936a24.451,24.451,0,0,1-6.195-.557V27.947a35.305,35.305,0,0,1,5.985-.487c4.315,0,6.611,2.925,6.611,7.028,0,3.828-2.505,6.681-6.4,6.681m.139-15.937a39.22,39.22,0,0,0-8.907.975v25.54h2.575V42.84a27.983,27.983,0,0,0,6.472.557c5.219,0,8.7-3.758,8.7-8.977-.07-5.5-3.341-9.186-8.838-9.186" transform="translate(754.291 -16.465)" fill="#fff"/>
  </g>
</svg>
